<?xml version="1.0" encoding="UTF-8"?>
<svg id="_图层_1" xmlns="http://www.w3.org/2000/svg" version="1.1" viewBox="0 0 600.79 334.08">
  <!-- Generator: Adobe Illustrator 30.3.0, SVG Export Plug-In . SVG Version: 2.1.3 Build 182)  -->
  <defs>
    <style>
      .st0 {
        stroke-width: 6px;
      }

      .st0, .st1, .st2, .st3, .st4, .st5, .st6, .st7, .st8, .st9, .st10, .st11 {
        stroke-miterlimit: 10;
      }

      .st0, .st1, .st3, .st4, .st5, .st6, .st7, .st8, .st9, .st10 {
        stroke: #231815;
      }

      .st0, .st2, .st9, .st10, .st11 {
        fill: none;
      }

      .st1, .st4, .st12 {
        fill: #fcecd3;
      }

      .st1, .st9 {
        stroke-width: 4px;
      }

      .st1, .st9, .st10, .st11 {
        stroke-linecap: round;
      }

      .st2, .st4, .st10 {
        stroke-width: 3px;
      }

      .st2, .st11 {
        stroke: #c59357;
      }

      .st13, .st5 {
        fill: #f2d3b9;
      }

      .st3, .st5, .st11 {
        stroke-width: 5px;
      }

      .st3, .st7 {
        fill: #feeedc;
      }

      .st6 {
        fill: #92b7b5;
      }

      .st6, .st7, .st8 {
        stroke-width: 2px;
      }

      .st14 {
        fill: #d9a367;
      }

      .st15 {
        fill: #231815;
      }

      .st16 {
        fill: #d6bf9a;
      }

      .st17 {
        fill: #fff;
      }

      .st8 {
        fill: #da8961;
      }
    </style>
  </defs>
  <path class="st4" d="M500.12,87.42c-5.17-9.53-11.67-18.19-19.87-25.5l-7.33-6.54c-29.45-24.32-66.81-37.37-104.2-43.49-4.42-.72-35.82-6.05-44.1-7.07-27.26-3.37-54.46-1.7-81.57,2.25-3.72.54-41.26,7.48-41.26,7.48-19.83,5.14-69.28,24.9-74.8,26.79-6.18,2.12-23.24,12.52-24.73,10.88-7.55-8.32-15.27-16.05-24.53-22.26-3.06-2.05-7.5-3.3-10.22-.56-10.96,11.06-18.39,31.51-22.83,46.71-9.32,7.07-19.25,13.77-26.52,23.19-13.03,16.9-20.84,37.89-10.23,56.7-.23-.05.64,1.48.69,1.28,2.73,5,2.98,9.64,2.96,15.08l-.13,46.79c-.04,14.35.23,28.29,2.18,42.44,1.16,8.45,4.31,16.01,10.23,22.39,0-.09.01-.19.04-.28.46-1.63-4.24,19.3-.83,25.63,1.51,2.79,4.92,5.48,8.46,6.65-.14-.46,5.96.23,11.89,1.09,5.43.79,10.71,1.74,10.91,2.1,11.46.77,22.08-2.38,32.34-7.15,2.87-1.33,7.14,0,10.18.33l44.26,4.74c0-.58,9.45,6.07,11.35,7.62,2.24,1.83,4.97,3.02,7.96,4.09-.08.03,4.9.71,5,.68,4.25,1.13,8.52,1.52,13.33,1.48-.46-.19,4.55.22,5.01.01,7.58-.02,14.72-1.03,21.93-3.13,2.81-.82,6.5-3.01,9.51-2.73,18.61,1.74,36.62,2.8,55.12.88l48.44-5.02,47.07-7.12,54.04-9.63c14.84-2.64,29.05-5.25,43.51-9.14,16.93-4.55,27.53-12.24,31.99-29.51,1.94-7.51,2.96-14.73,3.05-22.75l.99-88.75c.06-5.25,1.8-9.88,3.66-14.58,6.88-17.33,5.98-35.61-2.95-52.07h0Z"/>
  <path class="st15" d="M157.11,326.78c.53.21,1.08.42,1.65.6.69.05.56-.71.45-1.22-1.17-4.5-1.01-8.48.76-12.59.35-1.41,2.21-2.34,3.31-2.47.47-.09.55.08.64.42.37,1.75-2.61,10.88.49,16.1.47.67,1.06,1.05,1.79,1.25,3.19.74,6.45,1.05,9.95,1.11,1.66.06,1.75-.56,1.29-2.03-2-6.81,1.59-16.51,4.12-14.71.97.85.75,2.09.59,3.4-.42,2.51-1,5.3-.65,8.08.25,1.66.57,3.54,1.55,4.77.37.31.36.25.56.35.8.05,1.59.07,2.39.07"/>
  <path class="st9" d="M194.59,294.91c-31.21-14.49-58.41,15.5-42.27,28.17"/>
  <path class="st15" d="M48.66,319.3c-1.13-3.52-1.7-8.09-.65-11.98.99-3.81,2.91-6.21,4.01-4.74.82,1.82.24,3.96.16,5.99-.41,3.56.28,7.04,1.49,10.67"/>
  <path class="st15" d="M30.89,316.04c-.84-3.86-1.4-7.89-.15-11.7.85-2.56,2.58-4.7,3.73-3.52.81,1.63.07,3.47.02,5.42-.41,3.74.19,7.97,1.73,11.36"/>
  <path class="st1" d="M68.12,281.48c-9.79-5.5-21-6.17-31.37-2.06-5.76,2.37-10.53,6.73-13.04,11.68"/>
  <path class="st17" d="M82.16,198c1.18-3.56.4-7.83-1.9-10.62-1.89-2.3-5.65-4.19-9.15-3.51-7.26,1.4-10.4,9.51-7.32,15.76,1.99,4.04,5.49,5.99,9.53,5.75s7.25-2.61,8.83-7.37h.01Z"/>
  <path class="st17" d="M178.29,215.87c6.72.23,10.94-5.52,10.82-11.29-.11-5.38-4.48-10.63-10.44-10.54-5.98.09-10.28,5.12-10.34,10.54s3.59,11.08,9.95,11.29h.01Z"/>
  <path class="st17" d="M119.6,226.94c4.53,7.95,14.4,10.52,21.4,4.88l1.27-3.07c.28-.68-1.37-2.14-2.09-1.97-2.84.65-6.57,5.45-13.33.82-2.62-1.79-5.7-6.57-3.27-9.79,1.63-2.16,6.02-4.43,3.09-8.08-2.32-2.88-9.33-3.62-12.04-1.1-3.31,3.09.21,6.3,1.84,8.67,2.22,3.22-1.24,7.46-3.87,9-3.18,1.85-7.63,1.59-10-1.68-.93-1.29-2.73-2.12-3.76-1.18-.67.61-.79,2.87-.31,3.69,2.36,3.98,6.57,5.66,10.84,5.48,3.86-.17,7.36-2.42,10.24-5.68h0Z"/>
  <path class="st17" d="M52.8,216.35c.79.14,2.47-.83,2.37-1.5-.5-3.31-10.93-4.98-17.73-5.81-.79-.1-2.7,1.33-2.75,2.11s1.37,2.31,2.16,2.45l15.95,2.75Z"/>
  <path class="st17" d="M53.9,228l.86-2.58c.74-2.21-11.38-.78-18.07.56-.75.15-1.71,2-1.65,2.71s1.63,2.08,2.34,1.96l16.5-2.66h.02Z"/>
  <path class="st17" d="M216.04,228.49c1.07-.05,2.59-1.67,2.41-2.56-.16-.75-1.68-2.23-2.61-2.16l-17.82,1.28c-.88.06-2.23,2.2-1.77,2.93.38.61,1.96,1.34,2.81,1.3l16.98-.78h0Z"/>
  <path class="st17" d="M214.17,245.37c.86.21,2.96-1.26,2.88-2.02-.06-.61-.9-2.43-1.61-2.59l-17.7-3.79c-.79-.17-2.53,1.28-2.4,1.98s1.23,2.08,2.02,2.27l16.8,4.15h0Z"/>
  <path class="st3" d="M498.6,248.15l1.12-24.78c14.82,5.35,29.92,7.09,45.21,5.55,11.99-1.54,23.12-5.01,33.23-11.42,7.94-4.88,13.31-11.34,18.78-19.53l-5.02,45.74c-1.56,14.16-5.24,26.65-15.65,36.34-23.98,22.33-63.85,21.97-93.6,8.59,5.02-4.74,7.96-9.71,10.72-15.68l5.21-24.79v-.02Z"/>
  <path class="st5" d="M585.57,209.62c-3.17-1.42-4.22-6.43-6.7-10.56-1.52-2.71-3.43-5.2-5.65-7.37-4.47-4.42-10.14-7.55-16.14-9.82-4.8-1.87-9.93-3.46-12.83-7.13-2.83-3.43-3.31-8.71-1.28-12.53,3.16-6.03,10.98-7.09,17.2-7.34,13.81-.55,28.38,3.64,35.05,16.44,5.41,10.33,3.67,23.17-2.23,32.95-1.81,2.94-4.65,6.34-7.3,5.4l-.11-.04Z"/>
  <path d="M119.6,226.94c-2.87,3.26-6.37,5.51-10.24,5.68-4.27.19-8.48-1.5-10.84-5.48-.48-.82-.36-3.07.31-3.69,1.03-.94,2.83-.11,3.76,1.18,2.37,3.27,6.82,3.53,10,1.68,2.63-1.53,6.09-5.78,3.87-9-1.64-2.37-5.15-5.58-1.84-8.67,2.7-2.53,9.72-1.78,12.04,1.1,2.94,3.65-1.46,5.92-3.09,8.08-2.43,3.21.66,7.99,3.27,9.79,6.77,4.63,10.49-.17,13.33-.82.72-.17,2.37,1.29,2.09,1.97l-1.27,3.07c-7,5.64-16.87,3.07-21.4-4.88h0Z"/>
  <path d="M178.29,215.87c-6.36-.22-10.01-5.91-9.95-11.29s4.35-10.45,10.34-10.54c5.96-.09,10.34,5.16,10.44,10.54.11,5.77-4.1,11.52-10.82,11.29h0Z"/>
  <path d="M82.16,198c-1.58,4.76-4.61,7.12-8.83,7.37s-7.54-1.71-9.53-5.75c-3.08-6.25.05-14.36,7.32-15.76,3.5-.67,7.25,1.22,9.15,3.51,2.3,2.79,3.08,7.06,1.9,10.62h-.01Z"/>
  <path d="M216.04,228.49l-16.98.78c-.84.04-2.43-.69-2.81-1.3-.45-.73.89-2.87,1.77-2.93l17.82-1.28c.93-.07,2.46,1.42,2.61,2.16.19.9-1.34,2.52-2.41,2.56h0Z"/>
  <path d="M214.17,245.37l-16.8-4.15c-.79-.2-1.89-1.58-2.02-2.27s1.61-2.15,2.4-1.98l17.7,3.79c.71.15,1.55,1.97,1.61,2.59.07.77-2.02,2.23-2.88,2.02h0Z"/>
  <path d="M52.8,216.35l-15.95-2.75c-.79-.14-2.21-1.66-2.16-2.45s1.96-2.21,2.75-2.11c6.8.83,17.24,2.5,17.73,5.81.1.68-1.58,1.64-2.37,1.5Z"/>
  <path d="M53.9,228l-16.5,2.66c-.71.11-2.28-1.25-2.34-1.96s.9-2.56,1.65-2.71c6.69-1.34,18.81-2.78,18.07-.56l-.86,2.58h-.02Z"/>
  <path class="st11" d="M260.48,213.14c.74,15.16,2.04,24.52-.34,56.92s-7.7,37.29-7.7,37.29"/>
  <path class="st11" d="M9.38,160.56s-4.67-15.71.02-28.75,14.36-21.25,14.36-21.25c0,0,6.62-7.26,23.44-13.66,16.82-6.4,34.22-8.24,45.04-8.31s30.88.28,46.69,2.44c15.81,2.16,11.56,1.46,28.76,4.6s39.58,10.94,39.58,10.94c0,0,15.37,4.71,31.09,16.57s20.43,25.23,20.43,25.23c0,0,3.02,6,3.23,15.53s-6.31,23.87-6.31,23.87"/>
  <path class="st14" d="M9.05,157.28c-.05.21-.92-1.32-.69-1.28-10.61-18.81-2.81-39.8,10.23-56.7,7.27-9.43,17.2-16.12,26.52-23.19,4.44-15.21,11.87-35.66,22.83-46.71,2.72-2.74,7.17-1.49,10.22.56,9.26,6.21,16.99,13.94,24.53,22.26,1.49,1.64,18.54-8.76,24.73-10.88,5.52-1.89,54.97-21.65,74.8-26.79,0,0,37.54-6.93,41.26-7.48,27.11-3.95,54.31-5.61,81.57-2.25,8.28,1.02,39.68,6.35,44.1,7.07,37.39,6.11,74.75,19.17,104.2,43.49l7.33,6.54c8.2,7.31,14.7,15.97,19.87,25.5,6.48,11.95,8.73,24.85,6.85,37.65l-.73.25s-4.83-4.8-34.4-4.55-43.43,2.22-79.23,10.56c-35.8,8.34-47.12,13.68-74.8,25.49-27.68,11.8-62.09,30.96-62.09,30.96l-.46.31c6-12,9-27,4-40-9-22-31-34-52-42-17-6-33-10-51-13-11-1-22-3-33-4-8-1-15,0-23,0-19-1-39,1-57,9C20.69,108.08.69,133.08,9.44,159.09"/>
  <path class="st15" d="M258.08,58.08c-1.34-3.76-5.14-5.55-8.77-4.34-7.98,2.67-15.57,6.53-22.38,11.52l-10.97,8.03c-1.43,1.05-3.85.35-4.86-1.24-.96-1.5-.17-3.65,1.67-5.02l13.12-9.75c8.19-6.09,25.98-15.17,33.79-9.54,3.47,2.5,5.54,6.48,6.58,10.66,3.49,14.05,4.67,28.3,2.9,42.58-.15,1.18-2.53,2.95-3.6,3.11-1.19.17-3.39-1.73-3.39-3.11l-.02-19.53c0-7.94-1.35-15.71-4.07-23.38h0Z"/>
  <path class="st12" d="M137.36,40.64s14.53.21,21.96,1.19,15.71,1.93,25.61,4.78,12.5,3.62,16.33,4.97,17.13,6.47,17.13,6.47c0,0,1.08-2.41-.68-3.36s-7.46-3.81-7.46-3.81c0,0-7.39-3.31-9.85-4.23s-9.43-3.3-11.56-3.91-9.25-2.48-12.69-3.17-8.36-1.62-12.33-2.16-8.67-1.13-12.27-1.45-8.85-.71-8.85-.71l-13.71,5.09,8.38.3h0Z"/>
  <path class="st2" d="M255.72,187.77s34.41-19.16,62.09-30.96,39-17.15,74.8-25.49,49.66-10.31,79.23-10.56,34.4,4.55,34.4,4.55"/>
  <path class="st12" d="M242.66,10.64c30.96,9.41,64.35,30.16,84.09,54.69,1.17,1.46,1.59,3.24.19,4.62-27.76-28.06-63.73-51.95-103.64-56.91"/>
  <path class="st12" d="M346.48,10.91c18.78,12.91,36.43,29.98,46.88,49.97.29.55-.32,2.61-.85,2.36l-1.96-.93c-13.74-19.93-31.13-36.52-52.12-48.61-7.62-3.07-14.34-7.65-22.64-8.48"/>
  <path class="st0" d="M54.36,319.2c13.01,1.78,24.43-5.63,36.75-7.42,11.22,1.23,31.71,3.34,47.31,5.05,2.75.23,5.12,1.54,7.39,3.1,5,3.38,9.48,7.68,15.43,8.93,16.39,3.46,33.92,3.14,49.69-2.84,8.64-1.83,16.46,1.38,25.92.89,62.66-.3,116.29-11.09,173.26-20.89,35.73-7.48,74.44-8.4,83.53-35.27,4.26-8.81,5.52-26.93,4.98-40.8.11-13.3.24-28.25.43-43.45.15-11.7.28-23.09.52-32.8,3.78-19.02,11.56-33.94,6.48-51.41C479.02,27.27,386.61,12.82,317.52,3.98c-40.04-3.56-80.96,3.03-119.67,11.65-24.49,7.62-52.36,18.32-76.66,28.16-5.05,2.59-12.34,7.16-16.74,7.92-1.57.33-2.66-.14-3.74-1.17-7.46-7.14-21.03-24.03-30.7-22.1-13.9,8.75-18.73,29.75-24.68,44.86-1.21,3.46-4.49,5.41-7.15,7.72-23.35,15.73-45.46,48.04-30.06,75.3,3.67,6.75,3.56,14.71,3.39,22.18,1.85,28-6.52,82.06,10.99,103.9,1.39,1.68,1,3.49.6,5.49-5.46,27.11,4.71,29.39,31.03,31.28l.23.02h0Z"/>
  <path class="st13" d="M60.14,74.07s28.1-6.96,32.33-10.09,1.81-7.18-3.13-13.62-10-11.23-10-11.23c0,0-9.43-9.86-16.63,9.93-7.2,19.79-8.09,22.99-2.56,25h-.01Z"/>
  <path class="st7" d="M65.6,72.01c.68.14,1.53-.15,3.25-.59,3.69-.97,7.9-2.11,11.79-3.36,4.36-1.56,7.49-2.12,6.95-5.82-.83-2.89-3.03-5.36-4.9-7.67-1.66-1.85-3.24-3.84-5.06-5.31-5.71-3.65-9.59,4.35-11.09,9.17-.81,3.11-5.53,12.19-1.02,13.56l.08.02Z"/>
  <g>
    <path class="st13" d="M252.81,99.22s-25.03-14.55-28.2-18.75.27-7.4,6.82-12.19,12.74-7.97,12.74-7.97c0,0,11.81-6.82,13.18,14.2s1.33,24.33-4.55,24.72h0Z"/>
    <path class="st7" d="M247.86,95.61s-15.85-9.22-17.86-11.87.17-4.69,4.32-7.72,8.07-5.05,8.07-5.05c0,0,7.48-4.32,8.35,8.99s.84,15.41-2.88,15.65h0Z"/>
  </g>
  <path class="st10" d="M128.97,40.33l8.31.29s14.41.2,21.78,1.16,15.58,1.88,25.4,4.65c9.81,2.77,12.4,3.52,16.19,4.83,3.42,1.18,14.49,5.36,16.63,6.17"/>
  <path class="st10" d="M326.93,69.94c-27.76-28.06-63.73-51.95-103.64-56.91"/>
  <path class="st10" d="M390.56,62.32c-13.74-19.93-31.13-36.52-52.12-48.61-7.62-3.07-14.34-7.65-22.64-8.48"/>
  <path class="st6" d="M508.64,249.21c-2.11,1.68-1.52,4.84-1.66,10,0,4.77.01,9.91.02,14.72.32,7.46-1.17,11.22,3.46,13.57,3.37,1.29,7.41,1.4,11.1,1.51,6.38.03,14.18.13,20.16-1.4,6.31-1.34,8.19-6.13,7.94-12.2.01-5.7.02-14.07.05-19.14,0-2.88-.13-6.46-3.48-7.15-4.58-.93-9.79-.1-14.63.09-4.75.26-9.05.37-13.62-.09-4.17-.34-7.48-1.08-9.23.02l-.12.08h.01Z"/>
  <path class="st15" d="M514.38,234.91c-.53.34-.46,1.08-.61,2.27-.11,1.1-.23,2.29-.33,3.4-.1,1.73-.53,2.57.49,3.21.75.37,1.68.49,2.53.6,1.47.15,3.27.36,4.69.14,1.49-.16,2.03-1.23,2.11-2.64.13-1.32.33-3.25.45-4.42.07-.67.12-1.49-.64-1.73-1.04-.32-2.26-.25-3.38-.32-1.1-.05-2.1-.12-3.14-.33-.96-.18-1.7-.42-2.13-.21l-.03.02h0Z"/>
  <path class="st15" d="M533.31,235.93c-.47.41-.3,1.14-.27,2.34.06,1.11.12,2.3.17,3.41.16,1.73-.14,2.62.96,3.11.8.26,1.73.24,2.59.22,1.48-.07,3.29-.13,4.66-.56,1.45-.38,1.83-1.52,1.7-2.92-.06-1.32-.16-3.26-.21-4.44-.03-.67-.11-1.5-.89-1.62-1.07-.16-2.27.09-3.39.19-1.1.12-2.09.19-3.16.14-.97-.03-1.75-.16-2.14.11l-.03.02h.01Z"/>
  <path class="st15" d="M552.57,234.24c-.38.5-.07,1.18.19,2.35.27,1.07.56,2.23.84,3.31.49,1.66.37,2.59,1.55,2.86.83.1,1.75-.1,2.59-.29,1.44-.35,3.2-.77,4.46-1.46,1.34-.66,1.5-1.84,1.1-3.2-.32-1.28-.79-3.17-1.07-4.31-.16-.65-.4-1.45-1.19-1.41-1.08.05-2.21.53-3.29.85-1.05.33-2.02.59-3.07.75-.96.16-1.75.18-2.08.53l-.02.02h-.01Z"/>
  <path class="st15" d="M569.81,228.55c-.27.57.17,1.16.67,2.26.49,1,1.01,2.07,1.5,3.07.82,1.52.89,2.46,2.1,2.48.83-.07,1.69-.46,2.47-.81,1.34-.64,2.97-1.41,4.07-2.34,1.18-.92,1.09-2.11.42-3.35-.58-1.19-1.43-2.94-1.93-4-.29-.6-.68-1.33-1.45-1.14-1.05.27-2.05.97-3.05,1.5-.96.54-1.85,1-2.85,1.36-.91.35-1.67.53-1.93.94l-.02.03h0Z"/>
  <path class="st15" d="M562.77,173.42c.52-.24.62-.98.99-2.12.31-1.06.65-2.2.97-3.27.43-1.68.97-2.42.22-3.24-.57-.5-1.35-.79-2.06-1.05-1.24-.42-2.75-.94-4.02-.99-1.32-.11-2,.83-2.35,2.2-.38,1.27-.94,3.13-1.28,4.25-.19.64-.4,1.44.2,1.81.83.5,1.9.65,2.85.92.94.25,1.79.5,2.64.9.79.34,1.38.72,1.8.59h.04Z"/>
  <path class="st15" d="M578.22,178.77c.52-.24.62-.98.99-2.12.31-1.06.65-2.2.97-3.27.43-1.68.97-2.42.22-3.24-.57-.5-1.35-.79-2.06-1.05-1.24-.42-2.75-.94-4.02-.99-1.32-.11-2,.83-2.35,2.2-.38,1.27-.94,3.13-1.28,4.25-.19.64-.4,1.44.2,1.81.83.5,1.9.65,2.85.92.94.25,1.79.5,2.64.9.79.34,1.38.72,1.8.59h.04Z"/>
  <path class="st8" d="M556.57,249.69c.31-.44.77-.63,1.3-.75,1.09-.24,3.18-.73,5.83-1.64,2.55-.87,5.27-2.06,7.74-3.4,2.92-1.2,6.53-5.36,9.75-3.87,1.99,1.46,1.46,4.41,1.31,6.37-1.11,10.11-3.92,22.23-18.15,32.52-1.82,1.36-3.77,3.16-5.87,3.97-3.15.59-3.64-2.69-3.37-4.76.09-2.48.19-6.07.29-9.7.12-4.27.2-7.65.29-11.11.19-2.79-.51-5.07.82-7.55l.06-.09h0Z"/>
  <g>
    <circle class="st16" cx="294.78" cy="201.39" r="4"/>
    <circle class="st16" cx="332.44" cy="169.34" r="4"/>
    <circle class="st16" cx="436.11" cy="236.85" r="4"/>
    <circle class="st16" cx="368.5" cy="261.37" r="4"/>
    <circle class="st16" cx="464.16" cy="173.34" r="4"/>
    <circle class="st16" cx="368.5" cy="194.56" r="4"/>
    <circle class="st16" cx="422.05" cy="177.34" r="4"/>
    <circle class="st16" cx="393.73" cy="218.98" r="2"/>
    <circle class="st16" cx="341.24" cy="226.52" r="2"/>
    <circle class="st16" cx="404.84" cy="154.26" r="2"/>
    <circle class="st16" cx="332.44" cy="236.95" r="2"/>
    <circle class="st16" cx="287.57" cy="274.05" r="2"/>
    <circle class="st16" cx="324.36" cy="286.72" r="2"/>
    <circle class="st16" cx="460.16" cy="272.05" r="2"/>
    <circle class="st16" cx="464.16" cy="265.37" r="2"/>
    <circle class="st16" cx="412.41" cy="146.12" r="2"/>
    <circle class="st16" cx="429.28" cy="160.69" r="2"/>
    <circle class="st16" cx="468.16" cy="144.12" r="2"/>
    <circle class="st16" cx="422.05" cy="272.05" r="2"/>
  </g>
</svg>